<mxfile host="app.diagrams.net" agent="Mozilla/5.0 (Windows NT 10.0; Win64; x64) AppleWebKit/537.36 (KHTML, like Gecko) Chrome/139.0.0.0 Safari/537.36 Edg/139.0.0.0" version="28.1.2">
  <diagram name="Trang-1" id="6UQN-PvmAgcfltL4PJYx">
    <mxGraphModel dx="1034" dy="622" grid="1" gridSize="10" guides="1" tooltips="1" connect="1" arrows="1" fold="1" page="1" pageScale="1" pageWidth="827" pageHeight="1169" math="0" shadow="0">
      <root>
        <mxCell id="0" />
        <mxCell id="1" parent="0" />
        <mxCell id="So_txiS2NjgJnOMAFfg2-69" value="" style="edgeStyle=none;curved=1;rounded=0;orthogonalLoop=1;jettySize=auto;html=1;fontSize=12;startSize=8;endSize=8;strokeColor=none;" edge="1" parent="1" source="So_txiS2NjgJnOMAFfg2-2" target="So_txiS2NjgJnOMAFfg2-68">
          <mxGeometry relative="1" as="geometry" />
        </mxCell>
        <mxCell id="So_txiS2NjgJnOMAFfg2-2" value="" style="shape=curlyBracket;whiteSpace=wrap;html=1;rounded=1;labelPosition=left;verticalLabelPosition=middle;align=right;verticalAlign=middle;rotation=90;direction=west;gradientDirection=north;fillStyle=auto;fillColor=#F19C99;" vertex="1" parent="1">
          <mxGeometry x="287.83" y="278.41" width="20" height="497.41" as="geometry" />
        </mxCell>
        <mxCell id="So_txiS2NjgJnOMAFfg2-5" value="" style="shape=curlyBracket;whiteSpace=wrap;html=1;rounded=1;labelPosition=left;verticalLabelPosition=middle;align=right;verticalAlign=middle;strokeColor=light-dark(#000000,#000000);rotation=90;flipH=1;" vertex="1" parent="1">
          <mxGeometry x="654.6" y="413.99999999999994" width="20" height="226.24" as="geometry" />
        </mxCell>
        <mxCell id="So_txiS2NjgJnOMAFfg2-12" value="" style="shape=cube;whiteSpace=wrap;html=1;boundedLbl=1;backgroundOutline=1;darkOpacity=0.05;darkOpacity2=0.1;size=110;direction=east;flipH=1;fillColor=#7EA6E0;strokeColor=light-dark(#609dbf, #d4d4ff);gradientColor=#FFFFFF;gradientDirection=north;opacity=92;" vertex="1" parent="1">
          <mxGeometry x="56" y="96" width="120" height="420" as="geometry" />
        </mxCell>
        <mxCell id="So_txiS2NjgJnOMAFfg2-13" value="" style="shape=cube;whiteSpace=wrap;html=1;boundedLbl=1;backgroundOutline=1;darkOpacity=0.05;darkOpacity2=0.1;size=110;direction=east;flipH=1;fillColor=#7EA6E0;strokeColor=light-dark(#609dbf, #d4d4ff);gradientColor=#FFFFFF;gradientDirection=north;opacity=92;" vertex="1" parent="1">
          <mxGeometry x="76" y="96" width="120" height="420" as="geometry" />
        </mxCell>
        <mxCell id="So_txiS2NjgJnOMAFfg2-14" value="" style="shape=cube;whiteSpace=wrap;html=1;boundedLbl=1;backgroundOutline=1;darkOpacity=0.05;darkOpacity2=0.1;size=70;direction=east;flipH=1;fillColor=#FF9999;strokeColor=#b85450;gradientColor=#FFFFFF;gradientDirection=north;opacity=92;" vertex="1" parent="1">
          <mxGeometry x="121" y="186" width="80" height="240" as="geometry" />
        </mxCell>
        <mxCell id="So_txiS2NjgJnOMAFfg2-15" value="" style="shape=cube;whiteSpace=wrap;html=1;boundedLbl=1;backgroundOutline=1;darkOpacity=0.05;darkOpacity2=0.1;size=70;direction=east;flipH=1;fillColor=#7EA6E0;strokeColor=light-dark(#609dbf, #d4d4ff);gradientColor=#FFFFFF;gradientDirection=north;opacity=92;" vertex="1" parent="1">
          <mxGeometry x="136" y="186" width="80" height="240" as="geometry" />
        </mxCell>
        <mxCell id="So_txiS2NjgJnOMAFfg2-16" value="" style="shape=cube;whiteSpace=wrap;html=1;boundedLbl=1;backgroundOutline=1;darkOpacity=0.05;darkOpacity2=0.1;size=70;direction=east;flipH=1;fillColor=#7EA6E0;strokeColor=light-dark(#609dbf, #d4d4ff);gradientColor=#FFFFFF;gradientDirection=north;opacity=92;" vertex="1" parent="1">
          <mxGeometry x="155" y="186" width="80" height="240" as="geometry" />
        </mxCell>
        <mxCell id="So_txiS2NjgJnOMAFfg2-17" value="" style="shape=cube;whiteSpace=wrap;html=1;boundedLbl=1;backgroundOutline=1;darkOpacity=0.05;darkOpacity2=0.1;size=40;direction=east;flipH=1;fillColor=#FF9999;strokeColor=#b85450;gradientColor=#FFFFFF;gradientDirection=north;opacity=92;" vertex="1" parent="1">
          <mxGeometry x="191" y="232.25" width="50" height="133.75" as="geometry" />
        </mxCell>
        <mxCell id="So_txiS2NjgJnOMAFfg2-18" value="" style="shape=cube;whiteSpace=wrap;html=1;boundedLbl=1;backgroundOutline=1;darkOpacity=0.05;darkOpacity2=0.1;size=40;direction=east;flipH=1;fillColor=#7EA6E0;strokeColor=light-dark(#609dbf, #d4d4ff);gradientColor=#FFFFFF;gradientDirection=north;opacity=92;" vertex="1" parent="1">
          <mxGeometry x="208" y="232.25" width="50" height="133.75" as="geometry" />
        </mxCell>
        <mxCell id="So_txiS2NjgJnOMAFfg2-19" value="" style="shape=cube;whiteSpace=wrap;html=1;boundedLbl=1;backgroundOutline=1;darkOpacity=0.05;darkOpacity2=0.1;size=40;direction=east;flipH=1;fillColor=#7EA6E0;strokeColor=light-dark(#609dbf, #d4d4ff);gradientColor=#FFFFFF;gradientDirection=north;opacity=92;" vertex="1" parent="1">
          <mxGeometry x="225" y="232.25" width="50" height="133.75" as="geometry" />
        </mxCell>
        <mxCell id="So_txiS2NjgJnOMAFfg2-20" value="" style="shape=cube;whiteSpace=wrap;html=1;boundedLbl=1;backgroundOutline=1;darkOpacity=0.05;darkOpacity2=0.1;size=40;direction=east;flipH=1;fillColor=#7EA6E0;strokeColor=light-dark(#609dbf, #d4d4ff);gradientColor=#FFFFFF;gradientDirection=north;opacity=92;" vertex="1" parent="1">
          <mxGeometry x="242" y="232.25" width="50" height="133.75" as="geometry" />
        </mxCell>
        <mxCell id="So_txiS2NjgJnOMAFfg2-21" value="" style="shape=cube;whiteSpace=wrap;html=1;boundedLbl=1;backgroundOutline=1;darkOpacity=0.05;darkOpacity2=0.1;size=20;direction=east;flipH=1;fillColor=#FF9999;strokeColor=#b85450;gradientColor=#FFFFFF;gradientDirection=north;opacity=92;" vertex="1" parent="1">
          <mxGeometry x="275" y="262.56" width="40" height="73.13" as="geometry" />
        </mxCell>
        <mxCell id="So_txiS2NjgJnOMAFfg2-22" value="" style="shape=cube;whiteSpace=wrap;html=1;boundedLbl=1;backgroundOutline=1;darkOpacity=0.05;darkOpacity2=0.1;size=20;direction=east;flipH=1;fillColor=#7EA6E0;strokeColor=light-dark(#609dbf, #d4d4ff);gradientColor=#FFFFFF;gradientDirection=north;opacity=92;" vertex="1" parent="1">
          <mxGeometry x="302" y="262.56" width="38" height="73.13" as="geometry" />
        </mxCell>
        <mxCell id="So_txiS2NjgJnOMAFfg2-23" value="" style="shape=cube;whiteSpace=wrap;html=1;boundedLbl=1;backgroundOutline=1;darkOpacity=0.05;darkOpacity2=0.1;size=20;direction=east;flipH=1;fillColor=#7EA6E0;strokeColor=light-dark(#609dbf, #d4d4ff);gradientColor=#FFFFFF;gradientDirection=north;opacity=92;" vertex="1" parent="1">
          <mxGeometry x="326" y="262.56" width="40" height="73.13" as="geometry" />
        </mxCell>
        <mxCell id="So_txiS2NjgJnOMAFfg2-24" value="" style="shape=cube;whiteSpace=wrap;html=1;boundedLbl=1;backgroundOutline=1;darkOpacity=0.05;darkOpacity2=0.1;size=20;direction=east;flipH=1;fillColor=#7EA6E0;strokeColor=light-dark(#609dbf, #d4d4ff);gradientColor=#FFFFFF;gradientDirection=north;opacity=92;" vertex="1" parent="1">
          <mxGeometry x="351" y="262.56" width="40" height="73.13" as="geometry" />
        </mxCell>
        <mxCell id="So_txiS2NjgJnOMAFfg2-25" value="" style="shape=cube;whiteSpace=wrap;html=1;boundedLbl=1;backgroundOutline=1;darkOpacity=0.05;darkOpacity2=0.1;size=10;direction=east;flipH=1;fillColor=#FF9999;strokeColor=#b85450;gradientColor=#FFFFFF;gradientDirection=north;opacity=92;" vertex="1" parent="1">
          <mxGeometry x="381" y="279.13" width="35" height="40" as="geometry" />
        </mxCell>
        <mxCell id="So_txiS2NjgJnOMAFfg2-26" value="" style="shape=cube;whiteSpace=wrap;html=1;boundedLbl=1;backgroundOutline=1;darkOpacity=0.05;darkOpacity2=0.1;size=10;direction=east;flipH=1;fillColor=#7EA6E0;strokeColor=#609DBF;gradientColor=light-dark(#ffffff, #ededed);gradientDirection=north;opacity=92;align=center;verticalAlign=middle;fontFamily=Helvetica;fontSize=12;fontColor=default;" vertex="1" parent="1">
          <mxGeometry x="410" y="279.13" width="35" height="40" as="geometry" />
        </mxCell>
        <mxCell id="So_txiS2NjgJnOMAFfg2-27" value="" style="shape=cube;whiteSpace=wrap;html=1;boundedLbl=1;backgroundOutline=1;darkOpacity=0.05;darkOpacity2=0.1;size=7;direction=east;flipH=1;fillColor=#FF9999;strokeColor=#b85450;gradientColor=#FFFFFF;gradientDirection=north;opacity=92;" vertex="1" parent="1">
          <mxGeometry x="509" y="288.96" width="33" height="20.32" as="geometry" />
        </mxCell>
        <mxCell id="So_txiS2NjgJnOMAFfg2-28" value="" style="shape=cube;whiteSpace=wrap;html=1;boundedLbl=1;backgroundOutline=1;darkOpacity=0.05;darkOpacity2=0.1;size=3;direction=east;flipH=1;fillColor=#97D077;strokeColor=light-dark(#97D077,#66FF66);gradientColor=#FFFFFF;gradientDirection=north;" vertex="1" parent="1">
          <mxGeometry x="546" y="295.12" width="74" height="8" as="geometry" />
        </mxCell>
        <mxCell id="So_txiS2NjgJnOMAFfg2-29" value="" style="shape=cube;whiteSpace=wrap;html=1;boundedLbl=1;backgroundOutline=1;darkOpacity=0.05;darkOpacity2=0.1;size=3;direction=east;flipH=1;fillColor=#97D077;strokeColor=light-dark(#97D077,#66FF66);gradientColor=#FFFFFF;gradientDirection=north;opacity=92;" vertex="1" parent="1">
          <mxGeometry x="622" y="295.13" width="74" height="8" as="geometry" />
        </mxCell>
        <mxCell id="So_txiS2NjgJnOMAFfg2-30" value="" style="shape=cube;whiteSpace=wrap;html=1;boundedLbl=1;backgroundOutline=1;darkOpacity=0.05;darkOpacity2=0.1;size=3;direction=east;flipH=1;fillColor=#97D077;strokeColor=light-dark(#97D077,#66FF66);gradientColor=#FFFFFF;gradientDirection=north;opacity=92;" vertex="1" parent="1">
          <mxGeometry x="698" y="295.13" width="38" height="8" as="geometry" />
        </mxCell>
        <mxCell id="So_txiS2NjgJnOMAFfg2-31" value="" style="shape=cube;whiteSpace=wrap;html=1;boundedLbl=1;backgroundOutline=1;darkOpacity=0.05;darkOpacity2=0.1;size=7;direction=east;flipH=1;fillColor=#7EA6E0;strokeColor=light-dark(#609dbf, #d4d4ff);gradientColor=#FFFFFF;gradientDirection=north;align=center;verticalAlign=middle;fontFamily=Helvetica;fontSize=12;fontColor=default;" vertex="1" parent="1">
          <mxGeometry x="605" y="332" width="30" height="20" as="geometry" />
        </mxCell>
        <mxCell id="So_txiS2NjgJnOMAFfg2-32" value="" style="shape=cube;whiteSpace=wrap;html=1;boundedLbl=1;backgroundOutline=1;darkOpacity=0.05;darkOpacity2=0.1;size=7;direction=east;flipH=1;fillColor=#FF9999;strokeColor=#b85450;align=center;verticalAlign=middle;fontFamily=Helvetica;fontSize=12;fontColor=default;gradientColor=#FFFFFF;gradientDirection=north;" vertex="1" parent="1">
          <mxGeometry x="605" y="362" width="30" height="20" as="geometry" />
        </mxCell>
        <mxCell id="So_txiS2NjgJnOMAFfg2-33" value="" style="shape=cube;whiteSpace=wrap;html=1;boundedLbl=1;backgroundOutline=1;darkOpacity=0.05;darkOpacity2=0.1;size=7;direction=east;flipH=1;fillColor=#97D077;strokeColor=light-dark(#97D077,#66FF66);gradientColor=#FFFFFF;gradientDirection=north;" vertex="1" parent="1">
          <mxGeometry x="605" y="392" width="30" height="20" as="geometry" />
        </mxCell>
        <mxCell id="So_txiS2NjgJnOMAFfg2-34" value="" style="shape=cube;whiteSpace=wrap;html=1;boundedLbl=1;backgroundOutline=1;darkOpacity=0.05;darkOpacity2=0.1;size=3;direction=east;flipH=1;fillColor=#FFCC99;strokeColor=light-dark(#FFCC99,#FF0000);gradientColor=#FFFFFF;gradientDirection=north;opacity=92;" vertex="1" parent="1">
          <mxGeometry x="738" y="295.12" width="38" height="8" as="geometry" />
        </mxCell>
        <mxCell id="So_txiS2NjgJnOMAFfg2-35" value="" style="shape=cube;whiteSpace=wrap;html=1;boundedLbl=1;backgroundOutline=1;darkOpacity=0.05;darkOpacity2=0.1;size=7;direction=east;flipH=1;fillColor=#FFCC99;strokeColor=light-dark(#FFCC99,#FF0000);gradientColor=#FFFFFF;gradientDirection=north;" vertex="1" parent="1">
          <mxGeometry x="605" y="422" width="30" height="20" as="geometry" />
        </mxCell>
        <mxCell id="So_txiS2NjgJnOMAFfg2-44" value="224 x 224 x 64" style="text;html=1;strokeColor=none;fillColor=none;align=center;verticalAlign=middle;whiteSpace=wrap;rounded=0;fontFamily=Times New Roman;fontSize=12;" vertex="1" parent="1">
          <mxGeometry x="135.99779999999998" y="66" width="99" height="30" as="geometry" />
        </mxCell>
        <mxCell id="So_txiS2NjgJnOMAFfg2-45" value="112 x 112 x 128" style="text;html=1;strokeColor=none;fillColor=none;align=center;verticalAlign=middle;whiteSpace=wrap;rounded=0;fontFamily=Times New Roman;fontSize=12;" vertex="1" parent="1">
          <mxGeometry x="191" y="156" width="99" height="30" as="geometry" />
        </mxCell>
        <mxCell id="So_txiS2NjgJnOMAFfg2-46" value="56 x 56 x 256" style="text;html=1;strokeColor=none;fillColor=none;align=center;verticalAlign=middle;whiteSpace=wrap;rounded=0;fontFamily=Times New Roman;fontSize=12;" vertex="1" parent="1">
          <mxGeometry x="220.5" y="202.25" width="99" height="30" as="geometry" />
        </mxCell>
        <mxCell id="So_txiS2NjgJnOMAFfg2-47" value="28 x 28 x 512" style="text;html=1;strokeColor=none;fillColor=none;align=center;verticalAlign=middle;whiteSpace=wrap;rounded=0;fontFamily=Times New Roman;fontSize=12;" vertex="1" parent="1">
          <mxGeometry x="296.5" y="232.25" width="99" height="30" as="geometry" />
        </mxCell>
        <mxCell id="So_txiS2NjgJnOMAFfg2-48" value="14 x 14 x 512" style="text;html=1;strokeColor=none;fillColor=none;align=center;verticalAlign=middle;whiteSpace=wrap;rounded=0;fontFamily=Times New Roman;fontSize=12;" vertex="1" parent="1">
          <mxGeometry x="401" y="250" width="99" height="30" as="geometry" />
        </mxCell>
        <mxCell id="So_txiS2NjgJnOMAFfg2-49" value="" style="shape=cube;whiteSpace=wrap;html=1;boundedLbl=1;backgroundOutline=1;darkOpacity=0.05;darkOpacity2=0.1;size=10;direction=east;flipH=1;fillColor=#7EA6E0;strokeColor=#609DBF;gradientColor=light-dark(#ffffff, #ededed);gradientDirection=north;opacity=92;" vertex="1" parent="1">
          <mxGeometry x="440" y="279.13" width="35.0393" height="40" as="geometry" />
        </mxCell>
        <mxCell id="So_txiS2NjgJnOMAFfg2-50" value="" style="shape=cube;whiteSpace=wrap;html=1;boundedLbl=1;backgroundOutline=1;darkOpacity=0.05;darkOpacity2=0.1;size=10;direction=east;flipH=1;fillColor=#7EA6E0;strokeColor=light-dark(#609dbf, #d4d4ff);gradientColor=#FFFFFF;gradientDirection=north;opacity=92;" vertex="1" parent="1">
          <mxGeometry x="471" y="279.12" width="35" height="40" as="geometry" />
        </mxCell>
        <mxCell id="So_txiS2NjgJnOMAFfg2-51" value="7 x 7 x 512" style="text;html=1;strokeColor=none;fillColor=none;align=center;verticalAlign=middle;whiteSpace=wrap;rounded=0;fontFamily=Times New Roman;fontSize=12;" vertex="1" parent="1">
          <mxGeometry x="476" y="235.31" width="99" height="23.88" as="geometry" />
        </mxCell>
        <mxCell id="So_txiS2NjgJnOMAFfg2-53" value="1 x 1 x 4096" style="text;html=1;strokeColor=none;fillColor=none;align=center;verticalAlign=middle;whiteSpace=wrap;rounded=0;fontFamily=Times New Roman;fontSize=12;" vertex="1" parent="1">
          <mxGeometry x="593" y="271.13" width="99" height="24" as="geometry" />
        </mxCell>
        <mxCell id="So_txiS2NjgJnOMAFfg2-54" value="1 x 1 x 1000" style="text;html=1;strokeColor=none;fillColor=none;align=center;verticalAlign=middle;whiteSpace=wrap;rounded=0;fontFamily=Times New Roman;fontSize=12;" vertex="1" parent="1">
          <mxGeometry x="696" y="271.13" width="99" height="24" as="geometry" />
        </mxCell>
        <mxCell id="So_txiS2NjgJnOMAFfg2-55" value="convolutional + ReLU" style="text;html=1;strokeColor=none;fillColor=none;align=left;verticalAlign=middle;whiteSpace=wrap;rounded=0;fontStyle=1;fontFamily=Helvetica;" vertex="1" parent="1">
          <mxGeometry x="646" y="329.06" width="138" height="23.88" as="geometry" />
        </mxCell>
        <mxCell id="So_txiS2NjgJnOMAFfg2-56" value="max pooling" style="text;html=1;strokeColor=none;fillColor=none;align=left;verticalAlign=middle;whiteSpace=wrap;rounded=0;fontStyle=1;fontFamily=Helvetica;" vertex="1" parent="1">
          <mxGeometry x="646" y="359.06" width="138" height="23.88" as="geometry" />
        </mxCell>
        <mxCell id="So_txiS2NjgJnOMAFfg2-57" value="fully connected + ReLU" style="text;html=1;strokeColor=none;fillColor=none;align=left;verticalAlign=middle;whiteSpace=wrap;rounded=0;fontStyle=1;fontFamily=Helvetica;" vertex="1" parent="1">
          <mxGeometry x="646" y="390.12" width="138" height="23.88" as="geometry" />
        </mxCell>
        <mxCell id="So_txiS2NjgJnOMAFfg2-58" value="softmax" style="text;html=1;strokeColor=none;fillColor=none;align=left;verticalAlign=middle;whiteSpace=wrap;rounded=0;fontStyle=1;fontFamily=Helvetica;" vertex="1" parent="1">
          <mxGeometry x="645" y="418.12" width="138" height="23.88" as="geometry" />
        </mxCell>
        <mxCell id="So_txiS2NjgJnOMAFfg2-59" value="" style="endArrow=classicThin;html=1;rounded=0;fontSize=12;startSize=8;endSize=8;curved=1;exitX=0.5;exitY=1;exitDx=0;exitDy=0;endFill=1;" edge="1" parent="1" source="So_txiS2NjgJnOMAFfg2-51">
          <mxGeometry width="50" height="50" relative="1" as="geometry">
            <mxPoint x="529.5" y="254.18999999999983" as="sourcePoint" />
            <mxPoint x="526" y="285" as="targetPoint" />
          </mxGeometry>
        </mxCell>
        <mxCell id="So_txiS2NjgJnOMAFfg2-68" value="non-trainable" style="html=1;align=center;fillColor=none;rounded=1;gradientDirection=north;fillStyle=auto;strokeColor=none;fontFamily=Helvetica;labelBackgroundColor=none;labelBorderColor=none;textShadow=0;fontStyle=0;fontSize=16;" vertex="1" parent="1">
          <mxGeometry x="237.83" y="516" width="120" height="60" as="geometry" />
        </mxCell>
        <mxCell id="So_txiS2NjgJnOMAFfg2-70" value="trainable" style="html=1;align=center;fillColor=none;rounded=1;gradientDirection=north;fillStyle=auto;strokeColor=none;fontFamily=Helvetica;labelBackgroundColor=none;labelBorderColor=none;textShadow=0;fontStyle=0;fontSize=16;" vertex="1" parent="1">
          <mxGeometry x="605" y="516" width="120" height="60" as="geometry" />
        </mxCell>
      </root>
    </mxGraphModel>
  </diagram>
</mxfile>
